<?xml version="1.0" encoding="UTF-8" standalone="no"?>
<!-- Created with Inkscape (http://www.inkscape.org/) -->

<svg
   xmlns:dc="http://purl.org/dc/elements/1.1/"
   xmlns:cc="http://creativecommons.org/ns#"
   xmlns:rdf="http://www.w3.org/1999/02/22-rdf-syntax-ns#"
   xmlns:svg="http://www.w3.org/2000/svg"
   xmlns="http://www.w3.org/2000/svg"
   xmlns:xlink="http://www.w3.org/1999/xlink"
   version="1.1"
   width="900"
   height="600"
   id="svg2">
  <rect width="900" height="600" style="fill:#fff" />
  <path
     d="M 434.8,498.25 C 434.62,498.164 434.582,498.128 434.453,498.005 L 434.328,497.888 C 434.004,497.591 433.467,497.066 432.746,496.245 431.414,494.732 429.627,492.517 428.056,490.56 424.941,486.677 422.367,483.332 421.882,482.702 L 421.089,481.67 413.322,479.275 407.651,476.631 410.681,473.225 421.089,477.681 428.856,479.275 443.219,489.839 443.208,489.848 C 443.179,489.872 441.119,491.586 439.072,493.447 438.159,494.277 437.008,495.343 436.195,496.23 435.82,496.638 435.49,497.043 435.265,497.37 435.127,497.571 435.05,497.753 435.013,497.841 L 435.905,497.286 436.872,498.038 434.904,498.222 434.814,498.242 z M 381.46,482.23 C 374.683,482.229 367.989,480.356 361.565,476.663 L 361.558,476.659 361.561,476.651 C 361.561,476.651 362.401,475.05 364.439,473.555 366.38,472.13 369.881,470.427 375.539,470.405 H 375.656 C 382.357,470.405 390.557,472.683 400.029,477.176 399.709,477.388 392.273,482.23 381.463,482.23 L 381.473,482.24 z M 352.09,475.72 C 350.837,475.72 349.711,475.246 348.92,474.387 348.271,473.681 347.806,472.741 347.498,471.509 346.994,469.491 347.133,467.484 347.147,467.292 347.673,467.071 348.209,466.95 348.709,466.938 L 348.821,466.936 C 351.332,466.936 353.311,469.114 354.159,471.273 354.64,472.5 354.733,473.532 354.433,474.34 354.133,475.15 353.193,475.71 352.093,475.71 z M 403.77,469.73 C 386.411,467.251 379.053,460.975 375.937,456.147 372.614,450.998 373.296,446.235 373.303,446.187 L 373.306,446.173 373.319,446.169 C 373.324,446.169 374.38,445.884 375.977,445.876 380.595,445.876 392.407,448.199 403.775,469.718 L 403.782,469.732 403.762,469.722 z M 368.19,466.29 C 360.774,466.289 355.128,465.01 351.408,462.486 349.27,461.036 348.224,459.443 347.722,458.361 347.252,457.347 347.145,456.505 347.128,456.338 347.324,456.248 350.36,454.9 354.893,454.688 355.276,454.67 355.662,454.659 356.067,454.658 361.799,454.658 370.515,456.528 379.713,465.438 L 379.722,465.447 379.711,465.448 C 375.511,465.998 371.631,466.288 368.181,466.288 z M 332.28,464.91 C 324.46,464.91 313.717,462.522 307.017,455.823 L 307.01,455.815 307.03,455.81 C 307.1,455.792 314.372,453.947 322.553,453.748 323.041,453.736 323.532,453.729 324.028,453.729 331.36,453.729 336.972,455.151 340.71,457.954 342.015,458.933 342.728,459.844 342.888,460.737 343.022,461.483 342.628,462.287 341.832,462.887 340.149,464.158 337.14,464.836 332.887,464.904 L 332.287,464.924 z M 306.94,451.91 C 305.977,451.91 305.073,451.484 304.461,450.743 303.955,450.129 303.603,449.327 303.353,448.221 302.935,446.373 303.061,444.565 303.062,444.547 L 303.063,444.529 C 303.427,444.357 303.834,444.265 304.28,444.254 H 304.283 C 305.44,444.254 306.322,444.884 306.872,445.412 307.605,446.117 308.205,447.057 308.56,448.057 308.925,449.087 308.984,449.949 308.74,450.692 308.54,451.282 307.86,451.902 306.94,451.902 z M 365.47,450.59 C 364.217,450.59 363.091,450.116 362.3,449.257 361.651,448.551 361.186,447.611 360.878,446.379 360.374,444.361 360.513,442.354 360.527,442.162 361.053,441.941 361.589,441.82 362.089,441.808 L 362.201,441.806 C 364.712,441.806 366.691,443.984 367.539,446.143 368.02,447.37 368.113,448.402 367.813,449.21 367.513,450.03 366.563,450.58 365.473,450.58 z M 336.96,449.41 C 321.223,448.856 313.056,444.383 308.976,440.727 306.679,438.669 305.402,436.629 304.736,435.28 304.108,434.006 303.87,433.031 303.828,432.842 L 303.849,432.833 C 303.852,432.833 305.338,432.301 307.734,432.254 L 308.102,432.25 C 313.409,432.25 324.213,434.479 336.954,449.403 V 449.413 z M 354.05,447.82 C 341.389,445.892 334.216,440.457 330.428,436.235 326.457,431.81 325.268,427.689 325.215,427.497 325.238,427.49 326.785,427.087 329.115,427.028 329.284,427.023 329.46,427.021 329.639,427.021 329.82,427.021 330.004,427.023 330.192,427.028 336.56,427.167 348.126,430.051 354.047,447.813 H 354.057 z M 289.05,441.74 C 284.901,441.74 280.876,441.26 277.088,440.313 270.459,438.655 267.615,436.124 266.397,434.292 265.705,433.252 265.454,432.34 265.366,431.758 265.281,431.202 265.326,430.759 265.335,430.685 L 265.366,430.674 C 265.383,430.67 269.766,429.439 275.83,429.346 276.069,429.342 276.31,429.34 276.555,429.34 279.482,429.34 282.363,429.619 285.119,430.17 295.655,432.277 301.119,440.23 301.172,440.31 L 301.177,440.319 301.164,440.322 C 301.104,440.332 296.084,441.742 289.044,441.742 z M 318.44,431.06 C 317.171,431.06 316.045,430.597 315.268,429.756 314.629,429.065 314.164,428.113 313.848,426.848 313.342,424.833 313.483,422.846 313.497,422.663 314.023,422.442 314.559,422.321 315.059,422.309 L 315.171,422.307 C 317.677,422.307 319.659,424.486 320.51,426.645 320.978,427.833 321.06,428.853 320.753,429.679 320.443,430.519 319.533,431.059 318.443,431.059 z M 296.34,428.03 C 296.245,428.007 290.363,426.494 284.373,422.805 278.829,419.392 272.047,413.355 271.22,403.975 V 403.97 L 271.234,403.966 C 271.235,403.966 271.75,403.841 272.512,403.812 272.617,403.808 272.729,403.806 272.846,403.806 274.502,403.806 277.892,404.272 281.993,407.39 287.213,411.37 292.033,418.31 296.343,428.04 z M 310.77,427.5 C 310.733,427.485 306.541,425.807 301.301,421.416 296.419,417.324 289.555,409.956 284.585,398.086 284.588,398.085 285.727,397.478 287.471,397.368 287.572,397.361 287.674,397.359 287.777,397.359 287.927,397.359 288.082,397.364 288.24,397.368 290.651,397.436 294.323,398.438 298.394,402.831 303.07,407.878 307.244,416.171 310.798,427.482 L 310.808,427.514 310.778,427.504 z M 273.38,426.41 C 268.559,426.41 266.909,423.795 266.423,422.67 265.625,420.821 265.867,418.981 265.869,418.963 L 265.872,418.943 C 266.652,418.748 267.477,418.64 268.27,418.629 L 268.435,418.628 C 272.234,418.628 275.233,420.557 276.519,422.469 276.774,422.848 277.556,424.163 276.909,425.19 276.389,426 275.209,426.41 273.379,426.41 z M 262.7,412.94 C 260.008,412.94 255.889,412.775 251.559,411.988 247.265,411.207 244.831,407.556 243.546,404.632 242.147,401.447 241.752,398.409 241.748,398.378 H 241.76 C 255.042,398.768 261.315,402.649 264.238,405.835 267.256,409.125 267.435,412.541 267.444,412.757 L 267.435,412.758 C 267.415,412.758 265.545,412.938 262.695,412.938 z M 276.53,399.12 C 276.512,399.098 274.995,397.222 273.497,394.892 271.924,392.447 270.469,389.896 270.469,387.808 270.469,385.792 269.995,381.542 269.712,379.189 269.354,376.204 268.992,373.649 268.962,373.432 L 268.975,373.436 C 269.312,373.559 277.283,376.55 277.283,384.027 277.283,391.516 276.545,399.041 276.538,399.116 L 276.537,399.127 H 276.527 z M 266.2,398.41 C 266.116,398.41 266.033,398.402 265.95,398.389 263.594,397.996 259.454,396.195 254.877,393.571 249.795,390.657 245.668,387.535 243.257,384.78 241.059,382.268 239.754,378.323 239.377,373.054 239.11,369.315 239.43,366.2 239.464,365.891 239.876,365.754 240.314,365.687 240.779,365.687 242.543,365.716 244.426,366.51 246.968,368.261 248.949,369.626 251.133,371.482 253.458,373.775 257.47,377.732 260.626,381.707 260.657,381.746 L 260.689,381.786 C 260.954,382.261 263.226,386.357 264.996,390.344 266.12,392.876 266.763,394.701 267.02,396.09 267.167,396.881 267.21,397.4 267.016,397.871 266.935,398.066 266.781,398.247 266.631,398.319 266.491,398.379 266.351,398.409 266.191,398.409 z"
     id="branch"
     style="fill:#4e5b31;fill-opacity:1" />
  <use
     transform="matrix(-1,0,0,1,842.178,0)"
     id="use7"
     x="0"
     y="0"
     width="900"
     height="600"
     xlink:href="#branch" />
  <path
     d="M 698.83,95.476 696.475,96.414 695.552,96.782 692.698,96.625 690.025,97.908 685.285,101.147 685.076,101.297 683.309,101.758 681.668,101.05 680.736,101.474 680.415,103.394 679.528,104.773 678.436,105.54 674.653,105.927 671.463,107.572 667.313,106.461 665.385,107.216 661.286,110.908 659.191,111.9 658.459,111.858 655.681,111.715 654.508,112.099 652.756,113.792 649.441,114.05 648.408,114.765 646.79,118.025 645.037,119.833 644.034,120.045 642.947,119.647 642.13,119.791 641.76,121.877 640.967,122.751 638.748,123.515 636.975,124.992 635.419,125.791 633.335,125.739 H 632.856 L 630.78,126.885 626.875,127.227 625.251,128.776 624.893,129.107 624.135,129.565 622.895,130.305 622.591,130.489 621.096,130.222 619.346,130.915 618.638,129.826 617.427,130.553 615.823,130.622 613.825,129.733 612.303,129.055 611.19,129.216 610.803,131.156 610.764,131.362 609.594,132.919 607.41,134.242 607.113,134.629 604.628,137.837 599.906,142.803 595.913,144.831 591.774,146.09 588.877,148.47 581.278,152.237 569.284,158.204 566.831,158.99 563.311,159.552 557.033,161.864 551.494,163.535 551.186,163.629 550.09,163.961 542.28,166.324 538.645,165.94 536.492,166.722 530.887,166.1 526.99,166.177 524.523,166.69 519.886,168.914 512.059,172.676 509.473,175.042 505.446,177.143 500.731,178.636 500.742,176.655 500.714,176.571 499.078,177.088 497.897,177.461 494.072,178.051 H 491.944 L 490.623,177.667 490.419,177.736 482.601,180.312 473.882,181.154 469.519,182.553 466.259,182.501 464.221,183.108 460.226,183.596 458.798,183.215 458.476,183.127 446.726,183.637 441.354,183.03 438.79,183.613 434.494,182.168 428.225,181.441 426.76,181.002 423.465,180.024 421.974,180.883 420.858,181.002 418.191,180.035 417.231,180.01 415.029,180.806 413.762,180.481 412.585,179.543 409.824,179.132 408.142,177.718 398.74,178.964 396.189,178.214 387.635,175.722 386.274,175.791 384.578,177.062 382.03,177.991 379.818,178.566 376.806,178.671 373.309,177.753 369.703,176.005 368.37,175.688 365.396,175.988 364.486,176.071 359.02,173.139 351.978,168.735 347.2,166.439 345.406,166.148 345.165,167.001 346.055,169.806 346.358,172.58 346.267,175.143 346.218,176.73 346.664,178.155 348.389,180.067 349.108,181.987 349.634,187.271 349.628,192.633 348.789,201.184 348.506,202.486 347.505,206.916 346.591,210.985 343.045,221.818 342.071,223.161 339.68,224.792 334.261,228.48 330.271,230.781 329.008,231.304 325.769,231.549 323.751,231.444 321.238,230.083 318.771,229.448 315.539,227.124 311.944,226.38 308.003,224.102 306.977,222.869 304.831,222.667 301.855,221.774 301.857,221.769 300.764,221.442 300.009,221.222 V 221.221 L 296.213,221.117 292.673,219.483 290.809,219.033 288.262,218.904 285.596,220.143 285.595,220.139 284.244,220.768 282.537,220.09 281.302,220.167 279.903,222.282 279.694,222.61 278.73,223.12 277.53,223.103 276.591,223.078 275.575,223.522 274.207,224.115 V 224.118 L 272.999,224.645 272.409,224.9 272.399,224.89 272.036,224.963 271.391,225.075 270.591,225.228 269.181,224.404 268.431,223.962 267.174,223.706 266.497,224.195 266.364,226.496 265.746,227.874 263.785,229.608 261.792,231.363 260.403,233.41 256.727,241.8 254.424,245.185 253.709,245.974 251.301,248.63 249.165,250.287 244.243,254.102 239.584,255.843 235.571,256.663 233.62,256.671 229.924,256.179 226.601,255.159 222.951,252.877 218.948,249.66 213.154,243.936 212.334,243.443 212.163,243.329 210.338,242.162 208.984,242.197 208.454,243.071 208.164,244.334 207.919,245.454 207.255,251.821 207.304,252.19 207.653,254.812 212.054,260.962 213.412,264.229 213.635,264.602 214.543,266.127 215.234,267.29 215.303,267.408 216.807,271.896 215.75,274.43 216.284,276.127 214.948,277.164 214.703,278.629 218.654,283.582 219.516,285.767 218.553,288.796 217.017,290.467 216.588,290.924 216.804,292.204 218.622,293.839 221.711,296.589 223.358,300.675 224.611,301.771 226.067,301.461 226.877,302.079 228.105,302.058 229.313,303.266 230.095,303.645 231.331,304.261 232.308,305.533 232.524,309.444 234.346,314.304 234.374,316.939 234.384,317.313 235.518,319.261 235.874,320.799 235.27,324.868 236.715,326.174 238.282,325.854 239.294,326.014 240.92,327.368 242.889,330.369 244.815,330.087 246.037,330.676 251.939,336.01 253.278,336.686 253.352,336.728 254.315,337.211 255.512,338.419 257.368,337.187 257.574,337.166 259.592,336.988 260.478,337.585 262.182,338.734 264.416,338.705 269.26,340.19 271.379,340.733 275.64,343.381 277.451,344.501 278.523,345.372 279.947,346.533 282.792,347.757 285.232,348.341 286.554,348.655 287.549,349.039 287.574,348.977 287.588,348.981 287.564,349.044 292.848,351.067 295.71,351.735 298.358,352.71 300.285,353.413 301.699,353.436 303.699,351.754 305.636,351.642 307.245,352.043 308.815,351.78 311.3,350.249 311.785,349.53 313.547,348.691 319.491,347.953 321.228,348.517 325.688,346.577 328.676,347.408 331.321,346.47 337.1,347.754 338.636,348.835 340.353,350.8 340.563,350.809 342.475,350.846 341.676,352.177 344.199,354.824 346.478,358.269 346.632,358.724 348.289,363.588 349.521,365.311 350.383,367.716 350.425,369.284 349.085,370.306 348.865,370.889 348.789,371.105 349.061,371.76 349.567,371.484 350.53,370.951 351.696,370.77 353.762,370.99 355.126,371.133 357.28,370.064 358.707,369.354 361,370.341 363.52,370.313 364.578,370.784 367.573,372.142 369.102,372.286 369.667,371.915 370.027,371.059 369.842,370.063 368.697,368.74 366.166,365.802 365.13,364.292 364.341,362.106 364.096,359.312 363.922,357.427 364.236,354.95 364.916,354.066 365.416,352.098 H 365.425 L 365.554,351.583 366.96,349.717 370.684,347.324 374.684,343.742 377.846,341.657 381.106,340.245 381.193,339.849 381.556,339.995 389.848,337.176 389.985,337.16 393.677,336.517 418.597,338.272 419.521,337.993 419.525,337.987 420.355,335.657 420.802,335.225 421.099,334.943 423.839,333.737 425.12,333.554 428.676,334.432 430.132,334.791 432.464,333.484 434.118,333.512 437.535,331.646 439.646,331.699 440.449,331.378 444.561,328.423 448.522,327.288 449.552,326.74 449.915,326.541 453.975,324.397 456.554,322.416 458.78,321.233 461.218,320.604 467.598,320.155 468.881,318.017 471.625,317.651 473.282,315.781 475.178,315.01 476.537,313.052 477.676,311.411 479.267,310.49 484.367,310.17 490.412,310.919 491.211,310.434 492.577,305.559 494.007,304.644 497.858,299.032 497.871,296.987 497.875,295.279 498.508,292.847 498.078,288.456 498.588,284.01 500.982,278.36 503.091,276.081 506.492,273.78 508.221,273.027 510.67,272.615 V 272.609 L 511.03,272.548 511.654,272.441 520.087,272.325 C 520.204,272.238 523.154,272.283 523.154,272.283 L 525.966,272.245 533.08,273.511 533.586,273.599 535.991,274.378 538.765,276.535 541.701,279.403 542.252,279.938 544.154,280.739 544.729,280.99 546.3,280.739 548.537,279.574 550.225,278.147 552.526,276.89 552.582,276.81 553.877,274.862 553.916,274.822 553.944,274.829 553.947,274.818 553.925,274.813 554.436,274.038 558.883,272.305 564.113,272.001 564.701,271.683 565.028,271.508 566.41,269.885 567.705,269.874 570.84,271.008 573.044,270.571 574.794,271.27 576.154,271.109 578.719,270.805 581.473,272.743 583.078,272.948 588.736,276.258 589.03,276.306 589.182,276.334 589.506,276.387 590.177,276.188 591.175,275.899 591.307,275.86 591.433,276.034 592.076,276.941 592.958,277.067 594.002,275.674 593.587,275.042 593.43,274.812 591.409,274.401 589.594,271.298 591.322,269.437 588.611,266.111 588.161,265.56 588.008,265.326 587.071,263.903 582.325,256.668 576.143,251.733 576.141,251.737 573.976,250.005 573.962,249.995 573.204,249.399 569.902,246.041 567.544,242.911 567.235,242.237 566.748,241.175 565.335,238.097 562.873,236.201 560.867,234.01 560.769,233.881 556.629,228.255 555.949,227.312 554.971,226.747 552.905,226.733 552.71,226.537 552.594,226.416 552.664,226.342 553.655,225.357 554.76,225.079 555.236,223.99 553.128,217.886 553.114,217.673 552.957,215.723 554.675,206.868 554.895,205.789 557.823,199.831 559.637,198.345 561.617,194.453 563.313,191.965 564.938,190.383 565.222,190.215 568.156,188.439 570.621,188.092 572.969,187.761 577.068,189.025 580.969,188.949 581.73,188.868 583.5,188.665 586.411,187.748 587.785,186.9 588.498,185.807 589.985,180.82 590.463,179.233 591.38,177.509 596.686,171.401 600.697,167.691 609.716,161.078 614.131,158.439 616.385,157.092 636.511,148.146 641.741,142.844 644.466,140.087 649.287,136.852 654.928,134.541 659.782,130.699 660.842,129.365 662.178,125.062 663.291,124.793 664.296,122.619 664.582,122.001 668.543,119.209 668.991,118.986 684.379,111.276 686.615,111.583 687.812,109.79 692.289,109.039 693.113,108.899 694.217,108.348 695.156,106.749 V 106.433 L 695.285,102.16 696.241,101.005 696.762,98.189 697.253,97.539 697.766,96.863 699.034,95.972 698.814,95.441 z"
     id="path9"
     style="fill:#d57800;fill-opacity:1" />
</svg>
