<?xml version="1.0" encoding="UTF-8" standalone="no"?>
<svg
   xmlns:dc="http://purl.org/dc/elements/1.1/"
   xmlns:cc="http://creativecommons.org/ns#"
   xmlns:rdf="http://www.w3.org/1999/02/22-rdf-syntax-ns#"
   xmlns:svg="http://www.w3.org/2000/svg"
   xmlns="http://www.w3.org/2000/svg"
   xmlns:sodipodi="http://sodipodi.sourceforge.net/DTD/sodipodi-0.dtd"
   xmlns:inkscape="http://www.inkscape.org/namespaces/inkscape"
   width="1200"
   height="800"
   viewBox="-60 -40 120 80"
   id="svg3371"
   version="1.1"
   inkscape:version="0.91 r13725"
   sodipodi:docname="Flag_of_Tunisia.svg">
  <metadata
     id="metadata3389">
    <rdf:RDF>
      <cc:Work
         rdf:about="">
        <dc:format>image/svg+xml</dc:format>
        <dc:type
           rdf:resource="http://purl.org/dc/dcmitype/StillImage" />
      </cc:Work>
    </rdf:RDF>
  </metadata>
  <defs
     id="defs3387" />
  <sodipodi:namedview
     pagecolor="#ffffff"
     bordercolor="#666666"
     borderopacity="1"
     objecttolerance="10"
     gridtolerance="10"
     guidetolerance="10"
     inkscape:pageopacity="0"
     inkscape:pageshadow="2"
     inkscape:window-width="1280"
     inkscape:window-height="657"
     id="namedview3385"
     showgrid="false"
     inkscape:zoom="0.26"
     inkscape:cx="600"
     inkscape:cy="400"
     inkscape:window-x="-8"
     inkscape:window-y="-8"
     inkscape:window-maximized="1"
     inkscape:current-layer="g3373" />
  <g
     id="g3373"
     fill="#E70013">
    <rect
       x="-60"
       y="-40"
       width="120"
       height="80"
       id="rect3375" />
    <circle
       r="20"
       id="circle3377"
       fill="#FFF" />
    <path
       d="M 600 250 A 150 150 0 0 0 450 400 A 150 150 0 0 0 600 550 A 150 150 0 0 0 721.02344 488.35156 A 120 120 0 0 1 640 520 A 120 120 0 0 1 520 400 A 120 120 0 0 1 640 280 A 120 120 0 0 1 721.01367 311.67383 A 150 150 0 0 0 600 250 z "
       transform="matrix(0.1,0,0,0.1,-60,-40)"
       id="circle3379" />
    <path
       transform="translate(4)scale(9)rotate(-90)"
       d="M0,-1 L0.58779,0.80902 L-0.95106,-0.30902 L0.95106,-0.30902 L-0.58779,0.80902z"
       id="path3383" />
  </g>
</svg>
