<?xml version="1.0" encoding="UTF-8" standalone="no"?>
<!-- Created with Sodipodi ("http://www.sodipodi.com/") -->

<svg
   xmlns:dc="http://purl.org/dc/elements/1.1/"
   xmlns:cc="http://creativecommons.org/ns#"
   xmlns:rdf="http://www.w3.org/1999/02/22-rdf-syntax-ns#"
   xmlns:svg="http://www.w3.org/2000/svg"
   xmlns="http://www.w3.org/2000/svg"
   xmlns:sodipodi="http://sodipodi.sourceforge.net/DTD/sodipodi-0.dtd"
   xmlns:inkscape="http://www.inkscape.org/namespaces/inkscape"
   id="svg153"
   height="480"
   width="640"
   version="1.1"
   inkscape:version="0.91 r13725"
   sodipodi:docname="cv.svg">
  <sodipodi:namedview
     pagecolor="#ffffff"
     bordercolor="#666666"
     borderopacity="1"
     objecttolerance="10"
     gridtolerance="10"
     guidetolerance="10"
     inkscape:pageopacity="0"
     inkscape:pageshadow="2"
     inkscape:window-width="640"
     inkscape:window-height="480"
     id="namedview23"
     showgrid="false"
     inkscape:zoom="0.49166667"
     inkscape:cx="320"
     inkscape:cy="240"
     inkscape:window-x="0"
     inkscape:window-y="0"
     inkscape:window-maximized="0"
     inkscape:current-layer="flag" />
  <metadata
     id="metadata3006">
    <rdf:RDF>
      <cc:Work
         rdf:about="">
        <dc:format>image/svg+xml</dc:format>
        <dc:type
           rdf:resource="http://purl.org/dc/dcmitype/StillImage" />
      </cc:Work>
    </rdf:RDF>
  </metadata>
  <desc
     id="desc549">The United States of America flag, produced by Daniel McRae</desc>
  <defs
     id="defs155">
    <clipPath
       id="clipPath3679"
       clipPathUnits="userSpaceOnUse">
      <rect
         id="rect3681"
         fill-opacity="0.67"
         height="512"
         width="682.67"
         y="-.0000096671"
         x="-123.43" />
    </clipPath>
  </defs>
  <g
     id="flag"
     fill-rule="evenodd"
     clip-path="url(#clipPath3679)"
     transform="matrix(.93750 0 0 .93750 115.72 .0000090629)">
    <polygon
       id="polygon723"
       fill="#ffce08"
       transform="matrix(7.398 0 0 7.3981 130.92 428.79)"
       d="M 1.3084868e-6,-4.0040002 0.89895399,-1.237304 3.8080309,-1.2373029 1.4545381,0.47260808 2.3534912,3.239305 0,1.5293919 l -2.3534933,1.7099115 0.8989552,-2.76669531 -2.353492,-1.70991339 2.9090761,1.3e-6 z"
       stroke-width=".125"
       points="0 -4.004 0.89895 -1.2373 3.808 -1.2373 1.4545 0.47261 2.3535 3.2393 0 1.5294 -2.3535 3.2393 -1.4545 0.47261 -3.808 -1.2373 -0.89895 -1.2373" />
    <polygon
       id="polygon730"
       fill="#ffce08"
       transform="matrix(7.398 0 0 7.3981 316.91 280.12)"
       d="M 1.3084868e-6,-4.0040002 0.89895399,-1.237304 3.8080309,-1.2373029 1.4545381,0.47260808 2.3534912,3.239305 0,1.5293919 l -2.3534933,1.7099115 0.8989552,-2.76669531 -2.353492,-1.70991339 2.9090761,1.3e-6 z"
       stroke-width=".125"
       points="0 -4.004 0.89895 -1.2373 3.808 -1.2373 1.4545 0.47261 2.3535 3.2393 0 1.5294 -2.3535 3.2393 -1.4545 0.47261 -3.808 -1.2373 -0.89895 -1.2373" />
    <polygon
       id="polygon731"
       fill="#ffce08"
       transform="matrix(7.398 0 0 7.3981 88.271 365.07)"
       d="M 1.3084868e-6,-4.0040002 0.89895399,-1.237304 3.8080309,-1.2373029 1.4545381,0.47260808 2.3534912,3.239305 0,1.5293919 l -2.3534933,1.7099115 0.8989552,-2.76669531 -2.353492,-1.70991339 2.9090761,1.3e-6 z"
       stroke-width=".125"
       points="0 -4.004 0.89895 -1.2373 3.808 -1.2373 1.4545 0.47261 2.3535 3.2393 0 1.5294 -2.3535 3.2393 -1.4545 0.47261 -3.808 -1.2373 -0.89895 -1.2373" />
    <polygon
       id="polygon732"
       fill="#ffce08"
       transform="matrix(7.398 0 0 7.3981 316.91 359.08)"
       d="M 1.3084868e-6,-4.0040002 0.89895399,-1.237304 3.8080309,-1.2373029 1.4545381,0.47260808 2.3534912,3.239305 0,1.5293919 l -2.3534933,1.7099115 0.8989552,-2.76669531 -2.353492,-1.70991339 2.9090761,1.3e-6 z"
       stroke-width=".125"
       points="0 -4.004 0.89895 -1.2373 3.808 -1.2373 1.4545 0.47261 2.3535 3.2393 0 1.5294 -2.3535 3.2393 -1.4545 0.47261 -3.808 -1.2373 -0.89895 -1.2373" />
    <polygon
       id="polygon733"
       fill="#ffce08"
       transform="matrix(7.398 0 0 7.3981 269.82 217.8)"
       d="M 1.3084868e-6,-4.0040002 0.89895399,-1.237304 3.8080309,-1.2373029 1.4545381,0.47260808 2.3534912,3.239305 0,1.5293919 l -2.3534933,1.7099115 0.8989552,-2.76669531 -2.353492,-1.70991339 2.9090761,1.3e-6 z"
       stroke-width=".125"
       points="0 -4.004 0.89895 -1.2373 3.808 -1.2373 1.4545 0.47261 2.3535 3.2393 0 1.5294 -2.3535 3.2393 -1.4545 0.47261 -3.808 -1.2373 -0.89895 -1.2373" />
    <polygon
       id="polygon734"
       fill="#ffce08"
       transform="matrix(7.398 0 0 7.3981 198.74 193.05)"
       d="M 1.3084868e-6,-4.0040002 0.89895399,-1.237304 3.8080309,-1.2373029 1.4545381,0.47260808 2.3534912,3.239305 0,1.5293919 l -2.3534933,1.7099115 0.8989552,-2.76669531 -2.353492,-1.70991339 2.9090761,1.3e-6 z"
       stroke-width=".125"
       points="0 -4.004 0.89895 -1.2373 3.808 -1.2373 1.4545 0.47261 2.3535 3.2393 0 1.5294 -2.3535 3.2393 -1.4545 0.47261 -3.808 -1.2373 -0.89895 -1.2373" />
    <polygon
       id="polygon735"
       fill="#ffce08"
       transform="matrix(7.398 0 0 7.3981 127.65 216.41)"
       d="M 1.3084868e-6,-4.0040002 0.89895399,-1.237304 3.8080309,-1.2373029 1.4545381,0.47260808 2.3534912,3.239305 0,1.5293919 l -2.3534933,1.7099115 0.8989552,-2.76669531 -2.353492,-1.70991339 2.9090761,1.3e-6 z"
       stroke-width=".125"
       points="0 -4.004 0.89895 -1.2373 3.808 -1.2373 1.4545 0.47261 2.3535 3.2393 0 1.5294 -2.3535 3.2393 -1.4545 0.47261 -3.808 -1.2373 -0.89895 -1.2373" />
    <polygon
       id="polygon736"
       fill="#ffce08"
       transform="matrix(7.398 0 0 7.3981 86.184 280.12)"
       d="M 1.3084868e-6,-4.0040002 0.89895399,-1.237304 3.8080309,-1.2373029 1.4545381,0.47260808 2.3534912,3.239305 0,1.5293919 l -2.3534933,1.7099115 0.8989552,-2.76669531 -2.353492,-1.70991339 2.9090761,1.3e-6 z"
       stroke-width=".125"
       points="0 -4.004 0.89895 -1.2373 3.808 -1.2373 1.4545 0.47261 2.3535 3.2393 0 1.5294 -2.3535 3.2393 -1.4545 0.47261 -3.808 -1.2373 -0.89895 -1.2373" />
    <polygon
       id="polygon737"
       fill="#ffce08"
       transform="matrix(7.398 0 0 7.3981 198.74 450.03)"
       d="M 1.3084868e-6,-4.0040002 0.89895399,-1.237304 3.8080309,-1.2373029 1.4545381,0.47260808 2.3534912,3.239305 0,1.5293919 l -2.3534933,1.7099115 0.8989552,-2.76669531 -2.353492,-1.70991339 2.9090761,1.3e-6 z"
       stroke-width=".125"
       points="0 -4.004 0.89895 -1.2373 3.808 -1.2373 1.4545 0.47261 2.3535 3.2393 0 1.5294 -2.3535 3.2393 -1.4545 0.47261 -3.808 -1.2373 -0.89895 -1.2373" />
    <polygon
       id="polygon738"
       fill="#ffce08"
       transform="matrix(7.398 0 0 7.3981 274.26 428.79)"
       d="M 1.3084868e-6,-4.0040002 0.89895399,-1.237304 3.8080309,-1.2373029 1.4545381,0.47260808 2.3534912,3.239305 0,1.5293919 l -2.3534933,1.7099115 0.8989552,-2.76669531 -2.353492,-1.70991339 2.9090761,1.3e-6 z"
       stroke-width=".125"
       points="0 -4.004 0.89895 -1.2373 3.808 -1.2373 1.4545 0.47261 2.3535 3.2393 0 1.5294 -2.3535 3.2393 -1.4545 0.47261 -3.808 -1.2373 -0.89895 -1.2373" />
  </g>
</svg>
