<?xml version="1.0" encoding="UTF-8" standalone="no"?>
<!-- Created with Sodipodi ("http://www.sodipodi.com/") -->

<svg
   xmlns:dc="http://purl.org/dc/elements/1.1/"
   xmlns:cc="http://creativecommons.org/ns#"
   xmlns:rdf="http://www.w3.org/1999/02/22-rdf-syntax-ns#"
   xmlns:svg="http://www.w3.org/2000/svg"
   xmlns="http://www.w3.org/2000/svg"
   xmlns:sodipodi="http://sodipodi.sourceforge.net/DTD/sodipodi-0.dtd"
   xmlns:inkscape="http://www.inkscape.org/namespaces/inkscape"
   id="svg378"
   height="480"
   width="640"
   version="1"
   y="0"
   x="0"
   inkscape:version="0.91 r13725"
   sodipodi:docname="dz.svg">
  <defs
     id="defs13" />
  <sodipodi:namedview
     pagecolor="#ffffff"
     bordercolor="#666666"
     borderopacity="1"
     objecttolerance="10"
     gridtolerance="10"
     guidetolerance="10"
     inkscape:pageopacity="0"
     inkscape:pageshadow="2"
     inkscape:window-width="640"
     inkscape:window-height="480"
     id="namedview11"
     showgrid="false"
     inkscape:zoom="0.49166667"
     inkscape:cx="320"
     inkscape:cy="240"
     inkscape:window-x="0"
     inkscape:window-y="0"
     inkscape:window-maximized="0"
     inkscape:current-layer="g10429" />
  <metadata
     id="metadata9942">
    <rdf:RDF>
      <cc:Work
         rdf:about="">
        <dc:format>image/svg+xml</dc:format>
        <dc:type
           rdf:resource="http://purl.org/dc/dcmitype/StillImage" />
      </cc:Work>
    </rdf:RDF>
  </metadata>
  <g
     id="flag"
     stroke-width="1pt"
     fill-rule="evenodd">
    <g
       id="g10429"
       transform="matrix(.60208 0 0 .67733 0 .0000013750)" />
    <g
       id="g10433"
       transform="matrix(.80385 0 0 .80385 -110.73 -44.801)"
       fill="#f21930">
      <path
         id="path184"
         d="m692.45 439.71c-50.15 90.2-160.76 122.25-248.65 73.84s-119.93-159.03-71.52-246.92c48.409-87.887 159.02-119.93 246.91-71.519 32.491 17.896 55.625 41.423 73.819 74.936-6.64-9.132-14.053-16.67-23.784-24.32-59.948-47.132-146.85-36.73-193.98 23.218-47.13 59.947-36.729 146.85 23.218 193.98 59.948 47.131 146.85 36.729 193.98-23.218z" />
      <polygon
         id="polygon185"
         transform="translate(2.1812 -2.9051)"
         points="647.32 458.71 603.55 396.67 531.37 420.21 576.84 359.41 532.15 298.04 604.03 322.5 648.59 261.03 647.53 336.95 719.76 360.33 647.24 382.78" />
    </g>
  </g>
</svg>
