<?xml version="1.0" encoding="UTF-8" standalone="no"?>
<svg
   xmlns:dc="http://purl.org/dc/elements/1.1/"
   xmlns:cc="http://creativecommons.org/ns#"
   xmlns:rdf="http://www.w3.org/1999/02/22-rdf-syntax-ns#"
   xmlns:svg="http://www.w3.org/2000/svg"
   xmlns="http://www.w3.org/2000/svg"
   xmlns:xlink="http://www.w3.org/1999/xlink"
   xmlns:sodipodi="http://sodipodi.sourceforge.net/DTD/sodipodi-0.dtd"
   xmlns:inkscape="http://www.inkscape.org/namespaces/inkscape"
   id="svg2"
   height="480"
   width="640"
   version="1.1"
   viewBox="0 0 213.33333 160"
   inkscape:version="0.91 r13725"
   sodipodi:docname="ge.svg">
  <sodipodi:namedview
     pagecolor="#ffffff"
     bordercolor="#666666"
     borderopacity="1"
     objecttolerance="10"
     gridtolerance="10"
     guidetolerance="10"
     inkscape:pageopacity="0"
     inkscape:pageshadow="2"
     inkscape:window-width="640"
     inkscape:window-height="480"
     id="namedview19"
     showgrid="false"
     inkscape:zoom="0.49166667"
     inkscape:cx="320"
     inkscape:cy="240"
     inkscape:window-x="40"
     inkscape:window-y="45"
     inkscape:window-maximized="0"
     inkscape:current-layer="g3001" />
  <metadata
     id="metadata27">
    <rdf:RDF>
      <cc:Work
         rdf:about="">
        <dc:format>image/svg+xml</dc:format>
        <dc:type
           rdf:resource="http://purl.org/dc/dcmitype/StillImage" />
      </cc:Work>
    </rdf:RDF>
  </metadata>
  <defs
     id="defs4">
    <g
       id="smallcross">
      <clipPath
         id="vclip">
        <path
           id="path8"
           d="m-109 104a104 104 0 0 0 0 -208h218a104 104 0 0 0 0 208z" />
      </clipPath>
      <path
         id="varm"
         clip-path="url(#vclip)"
         d="m-55 74a55 55 0 0 1 110 0v-148a55 55 0 0 1 -110 0z" />
      <use
         id="use11"
         xlink:href="#varm"
         transform="rotate(90)"
         height="200"
         width="300"
         y="0"
         x="0" />
    </g>
  </defs>
  <g
     id="flag">
    <g
       id="g3001">
      <use
         id="use17"
         xlink:href="#smallcross"
         transform="matrix(.66855 0 0 .66855 49.472 39.566)"
         height="200"
         width="300"
         y="0"
         x="0"
         fill="#ff0000" />
      <use
         id="use19"
         xlink:href="#smallcross"
         transform="matrix(.66855 0 0 .66855 163.86 120.53)"
         height="200"
         width="300"
         y="0"
         x="0"
         fill="#ff0000" />
      <use
         id="use21"
         xlink:href="#smallcross"
         transform="matrix(.66855 0 0 .66855 163.86 39.566)"
         height="200"
         width="300"
         y="0"
         x="0"
         fill="#ff0000" />
      <use
         id="use23"
         xlink:href="#smallcross"
         transform="matrix(.66855 0 0 .66855 49.472 120.53)"
         height="200"
         width="300"
         y="0"
         x="0"
         fill="#ff0000" />
    </g>
  </g>
</svg>
