<?xml version="1.0" encoding="UTF-8" standalone="no"?>
<!-- Created with Sodipodi ("http://www.sodipodi.com/") -->

<svg
   xmlns:dc="http://purl.org/dc/elements/1.1/"
   xmlns:cc="http://creativecommons.org/ns#"
   xmlns:rdf="http://www.w3.org/1999/02/22-rdf-syntax-ns#"
   xmlns:svg="http://www.w3.org/2000/svg"
   xmlns="http://www.w3.org/2000/svg"
   xmlns:sodipodi="http://sodipodi.sourceforge.net/DTD/sodipodi-0.dtd"
   xmlns:inkscape="http://www.inkscape.org/namespaces/inkscape"
   id="svg378"
   viewBox="0 0 512 512"
   height="480"
   width="640"
   version="1"
   y="0"
   x="0"
   inkscape:version="0.91 r13725"
   sodipodi:docname="hn.svg">
  <sodipodi:namedview
     pagecolor="#ffffff"
     bordercolor="#666666"
     borderopacity="1"
     objecttolerance="10"
     gridtolerance="10"
     guidetolerance="10"
     inkscape:pageopacity="0"
     inkscape:pageshadow="2"
     inkscape:window-width="640"
     inkscape:window-height="480"
     id="namedview16"
     showgrid="false"
     inkscape:zoom="0.49166667"
     inkscape:cx="320"
     inkscape:cy="240"
     inkscape:window-x="0"
     inkscape:window-y="0"
     inkscape:window-maximized="0"
     inkscape:current-layer="flag" />
  <metadata
     id="metadata3649">
    <rdf:RDF>
      <cc:Work
         rdf:about="">
        <dc:format>image/svg+xml</dc:format>
        <dc:type
           rdf:resource="http://purl.org/dc/dcmitype/StillImage" />
      </cc:Work>
    </rdf:RDF>
  </metadata>
  <defs
     id="defs380">
    <clipPath
       id="clipPath4393"
       clipPathUnits="userSpaceOnUse">
      <rect
         id="rect4395"
         fill-opacity="0.67"
         height="512"
         width="682.67"
         y="0"
         x="-85.333" />
    </clipPath>
  </defs>
  <g
     id="flag"
     clip-path="url(#clipPath4393)"
     fill-rule="evenodd"
     stroke-width="1pt">
    <polygon
       id="polygon671"
       transform="matrix(.34510 -.0016795 -.0037575 .32718 88.666 141.87)"
       points="498.45 365.81 441.12 324.21 511.95 324.28 533.78 256.9 555.61 324.28 626.44 324.23 569.1 365.81 591.04 433.16 591.04 433.16 533.77 391.48 476.5 433.15"
       fill="#087bce" />
    <polygon
       id="polygon637"
       transform="matrix(.34510 -.0016795 -.0037575 .32718 231.61 178.67)"
       points="498.45 365.81 441.12 324.21 511.95 324.28 533.78 256.9 555.61 324.28 626.44 324.23 569.1 365.81 591.04 433.16 591.04 433.16 533.77 391.48 476.5 433.15"
       fill="#087bce" />
    <polygon
       id="polygon638"
       transform="matrix(.34510 -.0016795 -.0037575 .32718 231.61 102.24)"
       points="498.45 365.81 441.12 324.21 511.95 324.28 533.78 256.9 555.61 324.28 626.44 324.23 569.1 365.81 591.04 433.16 591.04 433.16 533.77 391.48 476.5 433.15"
       fill="#087bce" />
    <polygon
       id="polygon639"
       transform="matrix(.34510 -.0016795 -.0037575 .32718 -84.003 178.67)"
       points="498.45 365.81 441.12 324.21 511.95 324.28 533.78 256.9 555.61 324.28 626.44 324.23 569.1 365.81 591.04 433.16 591.04 433.16 533.77 391.48 476.5 433.15"
       fill="#087bce" />
    <polygon
       id="polygon640"
       transform="matrix(.34510 -.0016795 -.0037575 .32718 -84.003 102.24)"
       points="498.45 365.81 441.12 324.21 511.95 324.28 533.78 256.9 555.61 324.28 626.44 324.23 569.1 365.81 591.04 433.16 591.04 433.16 533.77 391.48 476.5 433.15"
       fill="#087bce" />
  </g>
</svg>
