<?xml version="1.0" encoding="UTF-8" standalone="no"?>
<!-- Created with Sodipodi ("http://www.sodipodi.com/") -->

<svg
   xmlns:dc="http://purl.org/dc/elements/1.1/"
   xmlns:cc="http://creativecommons.org/ns#"
   xmlns:rdf="http://www.w3.org/1999/02/22-rdf-syntax-ns#"
   xmlns:svg="http://www.w3.org/2000/svg"
   xmlns="http://www.w3.org/2000/svg"
   xmlns:sodipodi="http://sodipodi.sourceforge.net/DTD/sodipodi-0.dtd"
   xmlns:inkscape="http://www.inkscape.org/namespaces/inkscape"
   id="svg378"
   height="480"
   width="640"
   version="1"
   y="0"
   x="0"
   inkscape:version="0.91 r13725"
   sodipodi:docname="na.svg">
  <sodipodi:namedview
     pagecolor="#ffffff"
     bordercolor="#666666"
     borderopacity="1"
     objecttolerance="10"
     gridtolerance="10"
     guidetolerance="10"
     inkscape:pageopacity="0"
     inkscape:pageshadow="2"
     inkscape:window-width="640"
     inkscape:window-height="480"
     id="namedview17"
     showgrid="false"
     inkscape:zoom="0.49166667"
     inkscape:cx="320"
     inkscape:cy="240"
     inkscape:window-x="0"
     inkscape:window-y="0"
     inkscape:window-maximized="0"
     inkscape:current-layer="flag" />
  <metadata
     id="metadata4232">
    <rdf:RDF>
      <cc:Work
         rdf:about="">
        <dc:format>image/svg+xml</dc:format>
        <dc:type
           rdf:resource="http://purl.org/dc/dcmitype/StillImage" />
      </cc:Work>
    </rdf:RDF>
  </metadata>
  <defs
     id="defs380">
    <clipPath
       id="clipPath3052"
       clipPathUnits="userSpaceOnUse">
      <rect
         id="rect3054"
         fill-opacity="0.67"
         height="480"
         width="640"
         y="0"
         x="0" />
    </clipPath>
  </defs>
  <g
     id="flag"
     fill-rule="evenodd"
     clip-path="url(#clipPath3052)">
    <g
       id="g4279"
       transform="matrix(.9375 0 0 .9375 75.102 0)">
      <polygon
         id="polygon715"
         transform="matrix(.62436 .023795 -.024998 .62440 20.58 22.369)"
         d="m 223.81121,249.35391 -37.97017,-20.97471 -19.93871,38.52427 -22.39578,-37.14972 -36.52956,23.39363 -0.82045,-43.37048 -43.332351,1.9947 20.97471,-37.97017 -38.524264,-19.93871 37.149716,-22.39578 -23.393635,-36.529562 43.370484,-0.820453 -1.9947,-43.332348 37.97017,20.97471 19.93871,-38.524264 22.39578,37.149717 36.52956,-23.393636 0.82046,43.370487 43.33234,-1.994702 -20.97471,37.970171 38.52427,19.93871 -37.14972,22.39578 23.39364,36.52956 -43.37049,0.82045 z"
         points="223.81 249.35 185.84 228.38 165.9 266.9 143.51 229.75 106.98 253.15 106.16 209.78 62.824 211.77 83.799 173.8 45.275 153.86 82.424 131.47 59.031 94.937 102.4 94.117 100.41 50.785 138.38 71.759 158.32 33.235 180.71 70.385 217.24 46.991 218.06 90.362 261.39 88.367 240.42 126.34 278.94 146.28 241.79 168.67 265.19 205.2 221.82 206.02"
         stroke-width="1pt"
         fill="#ffe700" />
      <path
         id="path716"
         d="m239.52 185.41c0 31.289-25.365 56.654-56.654 56.654s-56.654-25.365-56.654-56.654 25.365-56.654 56.654-56.654 56.654 25.365 56.654 56.654z"
         transform="matrix(.87763 0 0 .87083 -42.442 -41.528)"
         fill="#3662a2" />
      <path
         id="path717"
         d="m239.52 185.41c0 31.289-25.365 56.654-56.654 56.654s-56.654-25.365-56.654-56.654 25.365-56.654 56.654-56.654 56.654 25.365 56.654 56.654z"
         transform="matrix(.68714 0 0 .68714 -7.608 -7.4702)"
         fill="#ffe700" />
    </g>
  </g>
</svg>
