<?xml version="1.0" encoding="UTF-8" standalone="no"?>
<!-- Created with Sodipodi ("http://www.sodipodi.com/") -->

<svg
   xmlns:dc="http://purl.org/dc/elements/1.1/"
   xmlns:cc="http://creativecommons.org/ns#"
   xmlns:rdf="http://www.w3.org/1999/02/22-rdf-syntax-ns#"
   xmlns:svg="http://www.w3.org/2000/svg"
   xmlns="http://www.w3.org/2000/svg"
   xmlns:sodipodi="http://sodipodi.sourceforge.net/DTD/sodipodi-0.dtd"
   xmlns:inkscape="http://www.inkscape.org/namespaces/inkscape"
   id="svg548"
   height="480"
   width="640"
   version="1.1"
   inkscape:version="0.91 r13725"
   sodipodi:docname="tr.svg">
  <defs
     id="defs13" />
  <sodipodi:namedview
     pagecolor="#ffffff"
     bordercolor="#666666"
     borderopacity="1"
     objecttolerance="10"
     gridtolerance="10"
     guidetolerance="10"
     inkscape:pageopacity="0"
     inkscape:pageshadow="2"
     inkscape:window-width="640"
     inkscape:window-height="480"
     id="namedview11"
     showgrid="false"
     inkscape:zoom="0.49166667"
     inkscape:cx="320"
     inkscape:cy="240"
     inkscape:window-x="0"
     inkscape:window-y="0"
     inkscape:window-maximized="0"
     inkscape:current-layer="flag" />
  <metadata
     id="metadata4108">
    <rdf:RDF>
      <cc:Work
         rdf:about="">
        <dc:format>image/svg+xml</dc:format>
        <dc:type
           rdf:resource="http://purl.org/dc/dcmitype/StillImage" />
      </cc:Work>
    </rdf:RDF>
  </metadata>
  <g
     id="flag">
    <g
       id="g3005"
       transform="matrix(.9375 0 0 .9375 132.01 7.2462)">
      <path
         id="path670"
         d="m393.35 220.64"
         stroke="#000"
         stroke-width=".77658pt"
         fill="none" />
      <path
         id="path614"
         d="m178.37 445.64c0 100.69-81.622 182.31-182.31 182.31s-182.31-81.622-182.31-182.31 81.622-182.31 182.31-182.31 182.31 81.622 182.31 182.31z"
         fill-rule="evenodd"
         transform="matrix(.71362 0 0 .70145 166.01 -56.352)"
         fill="#fff" />
      <path
         id="path615"
         d="m-15.739 157.09c0 44.186-35.82 80.006-80.006 80.006s-80.006-35.82-80.006-80.006 35.82-80.006 80.006-80.006 80.006 35.82 80.006 80.006z"
         fill-rule="evenodd"
         transform="matrix(1.3009 0 0 1.2787 320.28 55.365)"
         fill="#f31830" />
      <path
         id="path563"
         d="m318.63 196.5-1.0501 47.273-44.103 11.973 43.473 15.482-1.0501 43.351 28.352-33.854 42.842 14.863-24.782-36.332 30.242-36.125-46.413 12.798-27.512-39.428z"
         fill-rule="evenodd"
         stroke-width="1pt"
         fill="#fff" />
    </g>
  </g>
</svg>
